<?xml version="1.0" encoding="UTF-8"?>
<svg id="_レイヤー_2" data-name="レイヤー 2" xmlns="http://www.w3.org/2000/svg" viewBox="0 0 467.78 132.66">
  <g id="_レイヤー_1-2" data-name="レイヤー 1">
    <g>
      <g>
        <path d="M14.15,53.53c-.91-.71-2.09-1.54-3.54-2.47-1.46-.94-2.94-1.91-4.46-2.91-1.52-1-2.86-1.83-4.03-2.47-.97-.52-1.62-1.33-1.94-2.43-.32-1.1-.19-2.13,.39-3.1,.58-1.03,1.41-1.75,2.47-2.13,1.07-.39,2.12-.26,3.15,.39,1.16,.65,2.57,1.46,4.22,2.43,1.65,.97,3.27,1.96,4.85,2.96,1.58,1,2.83,1.83,3.74,2.47,1.1,.78,1.75,1.73,1.94,2.86,.19,1.13-.07,2.25-.78,3.35-.65,.97-1.57,1.57-2.77,1.79-1.2,.23-2.28-.01-3.25-.73ZM3.57,98.55c-1.04-.65-1.68-1.55-1.94-2.72-.26-1.16-.03-2.26,.68-3.3,1.03-1.55,2.2-3.44,3.49-5.68,1.29-2.23,2.62-4.58,3.98-7.03,1.36-2.46,2.63-4.83,3.83-7.13,1.2-2.3,2.18-4.32,2.96-6.06,.58-1.23,1.42-1.99,2.52-2.28,1.1-.29,2.2-.18,3.3,.34,2.26,1.16,2.85,3.07,1.75,5.72-1.04,2.39-2.38,5.22-4.03,8.49-1.65,3.27-3.35,6.52-5.09,9.75-1.75,3.24-3.36,5.98-4.85,8.25-.71,1.1-1.7,1.81-2.96,2.13-1.26,.32-2.47,.16-3.64-.49ZM19.29,31.8c-.91-.71-2.1-1.55-3.59-2.52-1.49-.97-2.99-1.94-4.51-2.91-1.52-.97-2.86-1.78-4.03-2.42-.91-.58-1.52-1.41-1.84-2.47-.32-1.07-.23-2.12,.29-3.15,.58-1.03,1.41-1.73,2.47-2.09,1.07-.35,2.12-.24,3.15,.34,1.16,.65,2.57,1.47,4.22,2.47,1.65,1,3.27,1.99,4.85,2.96,1.58,.97,2.83,1.81,3.74,2.52,1.1,.78,1.75,1.73,1.94,2.86,.19,1.13-.07,2.25-.78,3.35-.65,.97-1.55,1.55-2.72,1.75-1.16,.19-2.23-.03-3.2-.68Zm28.23,67.82c-4.72,0-8.46-.52-11.21-1.55-2.75-1.04-4.71-2.8-5.87-5.29-1.16-2.49-1.75-5.84-1.75-10.04v-27.65c0-4.08,.53-7.31,1.6-9.7,1.07-2.39,2.83-4.16,5.29-5.29,2.46-1.13,5.79-1.76,9.99-1.89v-13.29H28.5c-1.04,0-1.94-.37-2.72-1.12-.78-.74-1.16-1.63-1.16-2.67s.39-1.92,1.16-2.67c.78-.74,1.68-1.12,2.72-1.12h57.92c1.1,0,2.02,.37,2.77,1.12,.74,.74,1.12,1.63,1.12,2.67s-.37,1.93-1.12,2.67c-.74,.74-1.67,1.12-2.77,1.12h-19.6v13.29h.39c4.72,0,8.46,.52,11.21,1.55,2.75,1.04,4.71,2.78,5.87,5.24,1.16,2.46,1.75,5.82,1.75,10.09v27.65c0,4.21-.58,7.55-1.75,10.04-1.16,2.49-3.12,4.25-5.87,5.29-2.75,1.03-6.49,1.55-11.21,1.55h-19.7Zm-10.77-24.64h41.24v-10.77c-1.81,2.2-4.59,3.3-8.34,3.3s-6.52-.63-8.1-1.89c-1.59-1.26-2.38-3.9-2.38-7.91v-11.55h-5.92c-.13,5.04-.91,9.28-2.33,12.71-1.42,3.43-3.85,6.66-7.28,9.7-.78,.71-1.78,1.1-3.01,1.16-1.23,.07-2.26-.32-3.1-1.16-.19-.13-.34-.31-.44-.53-.1-.23-.21-.47-.34-.73v7.67Zm0-10.67c.32-.71,.74-1.29,1.26-1.75,2.85-2.26,4.79-4.58,5.82-6.94,1.03-2.36,1.62-5.48,1.75-9.36-3.36,.13-5.68,.84-6.94,2.13s-1.89,3.53-1.89,6.69v9.22Zm10.77,27.36h19.7c4.07,0,6.87-.61,8.39-1.84,1.52-1.23,2.31-3.59,2.38-7.08H36.75c0,3.49,.78,5.85,2.33,7.08,1.55,1.23,4.37,1.84,8.44,1.84Zm5.82-53.46h5.82v-13.29h-5.82v13.29Zm16.4,21.05c.71,0,1.31-.15,1.79-.44,.49-.29,.89-1.02,1.21-2.18,.26-1.03,.89-1.76,1.89-2.18,1-.42,2.02-.44,3.06-.05,.06,0,.13,.03,.19,.1-.06-3.23-.86-5.43-2.38-6.6-1.52-1.16-4.29-1.75-8.3-1.75h-.39v10.38c0,1.1,.24,1.83,.73,2.18,.49,.36,1.21,.53,2.18,.53Z"/>
        <path d="M120.19,53.83c-.84-.65-1.97-1.42-3.4-2.33-1.42-.91-2.86-1.83-4.32-2.77-1.46-.94-2.67-1.7-3.64-2.28-.97-.58-1.6-1.41-1.89-2.47s-.15-2.09,.44-3.06c.52-1.03,1.36-1.75,2.52-2.13,1.16-.39,2.26-.29,3.3,.29,.9,.52,2.13,1.26,3.69,2.23,1.55,.97,3.1,1.94,4.66,2.91,1.55,.97,2.75,1.78,3.59,2.43,1.03,.65,1.66,1.57,1.89,2.77,.23,1.2-.02,2.31-.73,3.35-.71,.97-1.67,1.57-2.86,1.79-1.2,.23-2.28-.02-3.25-.73Zm45.21,49.77c-1.1,0-2.07-.37-2.91-1.12-.84-.74-1.29-1.73-1.36-2.96,0-1.23,.4-2.23,1.21-3.01,.81-.78,1.89-1.2,3.25-1.26,2.26-.13,3.99-.32,5.19-.58,1.2-.26,2.09-.82,2.67-1.7,.58-.87,1.03-2.25,1.36-4.12h-20.08c-4.92,0-8.72-.52-11.4-1.55-2.69-1.03-4.43-2.76-5.24-5.19-.81-2.43-.96-5.71-.44-9.85l.68-4.56h-6.31c-.91,0-1.75-.39-2.52-1.16,.71,1.23,.74,2.59,.1,4.07-.78,1.75-1.71,3.78-2.81,6.11-1.1,2.33-2.28,4.74-3.54,7.23-1.26,2.49-2.51,4.84-3.74,7.03-1.23,2.2-2.3,4.07-3.2,5.63-.65,1.1-1.62,1.84-2.91,2.23-1.29,.39-2.49,.26-3.59-.39-1.1-.65-1.79-1.55-2.09-2.72s-.11-2.29,.53-3.4c.9-1.49,1.99-3.31,3.25-5.48,1.26-2.17,2.54-4.45,3.83-6.84,1.29-2.39,2.52-4.72,3.69-6.99,1.16-2.26,2.13-4.24,2.91-5.92,.52-1.1,1.33-1.86,2.43-2.28,1.1-.42,2.17-.37,3.2,.15,.65,.32,1.1,.65,1.36,.97-.45-.78-.68-1.52-.68-2.23,0-1.03,.37-1.94,1.12-2.72,.74-.78,1.63-1.17,2.67-1.17h7.37l.58-4.66c.58-4.14,1.5-7.31,2.77-9.51,1.26-2.2,3.17-3.72,5.72-4.56,2.55-.84,6.1-1.26,10.62-1.26h10.48c4.53,0,8.07,.47,10.62,1.41,2.55,.94,4.33,2.56,5.34,4.85,1,2.3,1.37,5.55,1.12,9.75-.06,.65-.1,1.29-.1,1.94s-.03,1.33-.1,2.04h8.15c1.1,0,2,.39,2.72,1.17,.71,.78,1.07,1.68,1.07,2.72s-.36,1.96-1.07,2.77c-.71,.81-1.62,1.21-2.72,1.21h-8.83c-.19,2.33-.4,4.62-.63,6.89-.23,2.26-.47,4.4-.73,6.4h8.73c1.1,0,2,.39,2.72,1.17,.71,.78,1.07,1.71,1.07,2.81,0,1.04-.36,1.94-1.07,2.72-.71,.78-1.62,1.16-2.72,1.16h-9.8c-.65,3.95-1.62,6.99-2.91,9.12-1.29,2.13-3.14,3.61-5.53,4.42-2.39,.81-5.56,1.21-9.51,1.21ZM123.78,31.22c-.84-.65-1.99-1.44-3.44-2.38-1.46-.94-2.91-1.88-4.37-2.81-1.46-.94-2.67-1.67-3.64-2.18-.97-.58-1.59-1.41-1.84-2.47-.26-1.07-.13-2.09,.39-3.06,.58-1.1,1.44-1.83,2.57-2.18,1.13-.36,2.22-.24,3.25,.34,.91,.52,2.13,1.26,3.69,2.23,1.55,.97,3.1,1.94,4.66,2.91,1.55,.97,2.75,1.75,3.59,2.33,1.03,.71,1.66,1.67,1.89,2.86,.23,1.2-.02,2.31-.73,3.35-.71,.97-1.67,1.55-2.86,1.75-1.2,.19-2.25-.03-3.15-.68Zm6.02,13.29c-.84-.71-1.36-1.67-1.55-2.86-.19-1.2,.1-2.21,.87-3.06,1.75-1.88,3.64-4.24,5.68-7.08,2.04-2.85,4.01-5.79,5.92-8.83,1.91-3.04,3.48-5.76,4.71-8.15,.58-1.16,1.42-1.96,2.52-2.38,1.1-.42,2.23-.37,3.4,.15,1.16,.58,1.91,1.42,2.23,2.52,.32,1.1,.23,2.2-.29,3.3-.52,1.04-1.07,2.09-1.65,3.15-.58,1.07-1.23,2.15-1.94,3.25h42.3c1.1,0,2.02,.37,2.77,1.12,.74,.75,1.12,1.67,1.12,2.77,0,1.04-.37,1.92-1.12,2.67s-1.67,1.12-2.77,1.12h-47.15c-1.42,2.07-2.86,4.07-4.32,6.02-1.46,1.94-2.86,3.72-4.22,5.34-.84,.97-1.88,1.57-3.1,1.79-1.23,.23-2.36-.05-3.4-.82Zm25.42,36.48h.97c.19-1.62,.45-3.59,.78-5.92,.32-2.33,.61-4.79,.87-7.37h-11.16l-.68,4.75c-.26,2.39-.19,4.21,.19,5.43,.39,1.23,1.29,2.05,2.72,2.47,1.42,.42,3.52,.63,6.31,.63Zm-7.57-21.15h11.06c.52-5.04,.87-9.12,1.07-12.22h-1.07c-2.72,0-4.79,.18-6.21,.53-1.42,.36-2.43,1.08-3.01,2.18-.58,1.1-1.04,2.85-1.36,5.24-.07,.65-.13,1.33-.19,2.04-.06,.71-.16,1.46-.29,2.23Zm16.98,21.15h11.35c.32-2,.6-4.16,.82-6.45,.23-2.29,.47-4.58,.73-6.84h-11.35c-.26,2.59-.52,5.03-.78,7.33-.26,2.3-.52,4.29-.78,5.97Zm2.23-21.15h11.25c.13-1.49,.23-2.85,.29-4.08,.13-2.39-.03-4.16-.48-5.29-.45-1.13-1.38-1.89-2.77-2.28-1.39-.39-3.48-.58-6.26-.58h-.97c-.07,1.62-.19,3.48-.39,5.58-.19,2.1-.42,4.32-.68,6.65Z"/>
        <path d="M259.33,102.92c-1.23,0-2.3-.42-3.2-1.26-.91-.84-1.36-1.94-1.36-3.3V54.5h-8.54c-2.85,0-5.05,.26-6.6,.78-1.55,.52-2.64,1.47-3.25,2.86-.62,1.39-.92,3.38-.92,5.97v25.61c0,1.36-.44,2.46-1.31,3.3-.87,.84-1.96,1.26-3.25,1.26s-2.3-.42-3.2-1.26c-.91-.84-1.36-1.94-1.36-3.3v-25.61c0-4.66,.6-8.31,1.79-10.96,1.2-2.65,3.23-4.51,6.11-5.58,2.88-1.07,6.87-1.6,11.98-1.6h8.54v-10.48h-36.09c-1.16,0-2.15-.4-2.96-1.21-.81-.81-1.21-1.79-1.21-2.96,0-1.1,.4-2.07,1.21-2.91,.81-.84,1.79-1.26,2.96-1.26h36.09v-10.19c0-1.36,.45-2.46,1.36-3.3,.9-.84,1.97-1.26,3.2-1.26,1.29,0,2.38,.42,3.25,1.26,.87,.84,1.31,1.94,1.31,3.3v10.19h36.29c1.16,0,2.15,.42,2.96,1.26,.81,.84,1.21,1.81,1.21,2.91,0,1.17-.4,2.15-1.21,2.96s-1.79,1.21-2.96,1.21h-36.29v10.48h9.41c5.11,0,9.1,.53,11.98,1.6,2.88,1.07,4.92,2.93,6.11,5.58,1.2,2.65,1.79,6.31,1.79,10.96v13.58c0,5.76-1.23,9.87-3.69,12.32s-6.66,3.69-12.61,3.69c-1.55,0-2.81-.44-3.78-1.31-.97-.87-1.49-2.02-1.55-3.44-.07-1.16,.34-2.26,1.21-3.3,.87-1.03,2.12-1.58,3.74-1.65,2.2-.13,3.83-.37,4.9-.73,1.07-.35,1.78-1,2.13-1.94,.35-.94,.53-2.31,.53-4.12v-13.1c0-2.59-.31-4.58-.92-5.97-.62-1.39-1.7-2.34-3.25-2.86-1.55-.52-3.75-.78-6.6-.78h-9.41v43.85c0,1.36-.44,2.46-1.31,3.3-.87,.84-1.96,1.26-3.25,1.26Z"/>
      </g>
      <g>
        <path d="M394.1,29.13c0-3.1,14.25-10.54,14.25-19.21,0-5.48-12.36-9.92-27.61-9.92-.08,0-.15,0-.23,0h0s-.01,0-.02,0-.01,0-.02,0h0c-.08,0-.15,0-.23,0-3.11,0-6.09,.19-8.88,.53h0c-.11,0-.22,.03-.33,.04-.44,.06-.88,.12-1.32,.18-.31,.05-.62,.1-.93,.15-.28,.05-.55,.09-.82,.14-.3,.05-.59,.11-.88,.16-.03,0-.05,.01-.08,.02-.72,.14-1.41,.29-2.08,.45-.09,.02-.17,.04-.26,.06-7.28,1.78-12.07,4.78-12.07,8.19,0,8.68,14.25,16.11,14.25,19.21,0,4.96-25.41,16.73-25.41,52.68,0,2.56,.08,5.08,.24,7.54,.01,0,.03,0,.04,0,.15,2.4,.39,4.74,.69,7.01-.02,0-.03,0-.04,0,.33,2.44,.74,4.8,1.23,7.06,.01,0,.02,0,.04,0,.56,2.58,1.24,5.03,2.02,7.34-.02,0-.03,0-.05-.01,3.4,10.14,8.86,17.48,16.19,20.14,.1,.04,.2,.08,.29,.11,.34,.12,.69,.22,1.04,.32,.21,.06,.42,.11,.63,.17,.31,.07,.62,.14,.94,.2,.28,.05,.57,.09,.86,.13,.27,.04,.53,.08,.81,.1,.5,.05,1.02,.07,1.53,.08,.06,0,.12,0,.19,0h.16c1.2,0,9.64,0,16.23,0,3.6,0,8.33,0,8.39,0,7.05,0,12.78-3.74,17.1-10.05-2.27-.14-4.46-.6-6.52-1.33-2.88,3.37-6.39,5.38-10.58,5.38-.03,0-.4,0-.98,0l-2.56-15.65c-.22,0-.44-.01-.67-.01-4.93,0-7.17,1.34-10,3.04-3.16,1.89-6.73,4.04-13.6,4.04-5.29,0-8.63-1.27-11.32-2.72-1.43-2.91-2.61-6.24-3.54-9.83,1.89,.74,3.42,1.65,4.86,2.51,2.83,1.7,5.07,3.04,10,3.04s7.17-1.34,10-3.04c3.08-1.85,6.57-3.93,13.12-4.03l-1.14-6.95c-3.84,.26-5.88,1.49-8.38,2.99-3.16,1.89-6.73,4.04-13.6,4.04s-10.45-2.15-13.6-4.04c-.93-.56-1.8-1.08-2.72-1.52-.41-2.54-.72-5.14-.93-7.77,3.08,.79,5.25,2.09,7.26,3.29,2.83,1.7,5.07,3.04,10,3.04s7.17-1.34,10-3.04c2.7-1.62,5.72-3.43,10.85-3.91l-13.58-83.02c2.34-.27,4.97-.45,7.91-.45h.08s.14,0,.14,0h.01s.02,0,.02,0h.02s.01,0,.01,0h.14s.08,0,.08,0c12.69,0,19.76,3.1,21.53,4.58-.68,2.74-5.16,6.71-7.65,8.92-3.64,3.22-6.51,5.77-6.51,9.63s2.67,6.49,6.36,10.14c7.12,7.04,19.05,18.83,19.05,42.54,0,3.03-.14,6.09-.4,9.11,.02,0,.03,0,.05,0,2.39,0,4.56-.95,6.16-2.48,.12-2.17,.19-4.38,.19-6.63,0-35.94-25.41-47.72-25.41-52.68Z"/>
        <path d="M449.47,93.38c-3.16-1.89-6.73-4.04-13.6-4.04s-10.45,2.15-13.6,4.04c-2.83,1.7-5.07,3.04-10,3.04s-7.17-1.34-10-3.04c-3.16-1.89-6.73-4.04-13.6-4.04-.98,0-1.89,.05-2.75,.13l1.13,6.93c.51-.04,1.04-.06,1.62-.06,4.93,0,7.17,1.34,10,3.04,3.16,1.89,6.73,4.04,13.6,4.04s10.45-2.15,13.6-4.04c2.83-1.7,5.07-3.04,10-3.04s7.17,1.34,10,3.04c2.49,1.49,5.23,3.14,9.65,3.77,2.09,.3,3.96-1.36,3.96-3.47h0c0-1.75-1.3-3.21-3.03-3.46-2.97-.44-4.8-1.53-6.98-2.84Z"/>
        <path d="M449.47,107.38c-3.16-1.89-6.73-4.04-13.6-4.04s-10.45,2.15-13.6,4.04c-2.83,1.7-5.07,3.04-10,3.04s-7.17-1.34-10-3.04c-3.23-1.94-6.89-4.14-14.08-4.04h0s1.15,7.01,1.15,7.01c4.47,.12,6.63,1.41,9.33,3.03,3.16,1.89,6.73,4.04,13.6,4.04s10.45-2.15,13.6-4.04c2.83-1.7,5.07-3.04,10-3.04s7.17,1.34,10,3.04c2.49,1.49,5.23,3.14,9.65,3.77,2.09,.3,3.96-1.36,3.96-3.47h0c0-1.75-1.3-3.21-3.03-3.46-2.97-.44-4.8-1.53-6.98-2.84Z"/>
        <path d="M464.37,15.89c-6.84-7.08-18.62-3.04-20.38,5.93-1.11-5.36-6.18-9.63-11.78-9.57-6.51-.08-12.32,5.71-12,12.25,.05,.33,.4,.27,.5,0,5.4-9.61,17.62-9.63,23,0,.05,.15,.18,.22,.29,.22,0,0,.01,0,.02,0,.04,0,.08-.02,.12-.05,.06-.04,.11-.09,.14-.17,5.38-9.63,17.6-9.61,23,0,.1,.28,.45,.33,.5,0,.1-3.17-1.15-6.35-3.4-8.6Z"/>
        <path d="M463.57,30.84c-4.22-4.41-11.64-1.79-12.59,3.84-1.47-8.49-14.49-8.03-14.66,1.45,.02,.2,.25,.16,.3,0,3.26-6.02,10.95-6.04,14.2,0,.02,.05,.05,.08,.09,.11,.07,.08,.22,.03,.26-.09,3.25-6.04,10.94-6.02,14.2,0,.06,.17,.27,.19,.3,0,.06-1.95-.71-3.92-2.1-5.3Z"/>
      </g>
      <g>
        <path d="M65.14,132.6c-1.33,0-2.57-.24-3.72-.7-1.15-.47-2.13-1.26-2.95-2.38-.34-.48-.45-.92-.33-1.33s.41-.74,.89-1.01c.46-.27,.88-.34,1.26-.23,.38,.12,.76,.38,1.13,.78,.44,.5,.97,.88,1.59,1.16,.62,.27,1.37,.41,2.26,.41,1.22,0,2.04-.21,2.44-.62,.41-.42,.61-.97,.61-1.66,0-.44-.1-.82-.31-1.14-.2-.32-.65-.62-1.33-.92-.68-.29-1.73-.61-3.15-.94-1.72-.41-2.98-1.06-3.8-1.97-.81-.9-1.22-2.03-1.22-3.37,0-1.12,.27-2.09,.8-2.92s1.28-1.48,2.24-1.95c.97-.47,2.1-.7,3.41-.7,1.38,0,2.58,.25,3.6,.74,1.02,.5,1.85,1.12,2.51,1.86,.35,.43,.49,.85,.4,1.26-.09,.42-.35,.79-.8,1.13-.44,.34-.86,.46-1.25,.39-.39-.08-.78-.31-1.17-.7-.39-.39-.85-.72-1.38-.98s-1.19-.4-1.97-.4c-.83,0-1.51,.17-2.03,.52s-.78,.88-.78,1.61c0,.28,.07,.57,.23,.86,.15,.29,.5,.58,1.06,.86s1.45,.58,2.67,.88c2.07,.5,3.57,1.24,4.5,2.22,.93,.98,1.39,2.19,1.39,3.62,0,1.82-.62,3.22-1.85,4.18-1.23,.96-2.89,1.45-4.98,1.45Z"/>
        <path d="M77.92,132.2c-.57,0-.96-.17-1.18-.5-.22-.34-.23-.8-.01-1.38l5.79-15.41c.32-.87,.95-1.3,1.89-1.3h.24c.94,0,1.57,.43,1.89,1.3l5.79,15.41c.21,.58,.21,1.04-.01,1.38-.22,.34-.62,.5-1.21,.5h-.56c-.94,0-1.56-.45-1.86-1.35l-.8-2.34h-6.83l-.8,2.34c-.28,.9-.9,1.35-1.86,1.35h-.48Zm4.25-6.88h4.62l-2.28-6.75-2.34,6.75Z"/>
        <path d="M99.41,132.2c-1.15,0-1.73-.58-1.73-1.75v-15.09c0-1.17,.58-1.75,1.73-1.75s1.73,.58,1.73,1.75v6.29l5.34-6.69c.44-.55,.84-.91,1.2-1.09,.35-.18,.81-.27,1.35-.27,.5,0,.86,.12,1.1,.36s.35,.53,.35,.86c0,.34-.13,.65-.36,.93l-5.26,6.48,5.53,7.84c.23,.32,.35,.66,.37,1.01s-.09,.66-.33,.9c-.24,.25-.65,.37-1.23,.37s-1.06-.12-1.43-.34c-.37-.23-.69-.54-.96-.93l-5.66-8.42v7.78c0,1.17-.58,1.75-1.73,1.75Z"/>
        <path d="M118.32,132.2c-1.17,0-1.75-.58-1.75-1.75v-15.09c0-1.17,.58-1.75,1.75-1.75h9.16c1.17,0,1.75,.53,1.75,1.59s-.58,1.59-1.75,1.59h-7.46v4.33h6.67c1.17,0,1.75,.53,1.75,1.59s-.58,1.59-1.75,1.59h-6.67v4.7h7.76c1.17,0,1.75,.53,1.75,1.59s-.58,1.59-1.75,1.59h-9.46Z"/>
        <path d="M136.6,132.2c-1.17,0-1.75-.58-1.75-1.75v-15.09c0-.67,.18-1.13,.53-1.38,.35-.25,.87-.37,1.54-.37,.92,0,1.61,.4,2.07,1.2l4.36,7.57,4.3-7.54c.28-.5,.61-.82,.97-.98,.36-.16,.85-.24,1.45-.24,1.17,0,1.75,.58,1.75,1.75v15.09c0,1.17-.58,1.75-1.75,1.75s-1.75-.58-1.75-1.75v-10.86l-3.29,6c-.43,.81-.99,1.22-1.7,1.22s-1.27-.41-1.7-1.22l-3.29-6v10.86c0,1.17-.58,1.75-1.73,1.75Z"/>
        <path d="M159.73,132.2c-1.15,0-1.73-.58-1.73-1.75v-15.09c0-1.17,.58-1.75,1.73-1.75s1.73,.58,1.73,1.75v15.09c0,1.17-.58,1.75-1.73,1.75Z"/>
        <path d="M185.63,132.66c-1.68,0-3.19-.4-4.52-1.2-1.33-.8-2.37-1.93-3.12-3.39-.75-1.46-1.13-3.18-1.13-5.17s.38-3.73,1.13-5.19c.75-1.46,1.79-2.59,3.12-3.4,1.33-.81,2.83-1.21,4.52-1.21,1.26,0,2.41,.22,3.45,.66,1.04,.44,1.96,1.07,2.74,1.89,.41,.44,.54,.89,.4,1.33s-.42,.79-.82,1.04l-.13,.08c-.27,.16-.63,.22-1.1,.19s-.91-.24-1.31-.61c-.89-.8-1.96-1.2-3.21-1.2-1.05,0-1.95,.27-2.72,.81-.77,.54-1.37,1.29-1.79,2.24-.42,.96-.64,2.08-.64,3.37s.21,2.39,.64,3.35c.43,.96,1.02,1.71,1.79,2.24,.77,.54,1.68,.81,2.72,.81,1.26,0,2.33-.4,3.21-1.2,.41-.37,.82-.59,1.24-.65,.42-.06,.81,0,1.18,.2l.05,.03c.41,.21,.7,.55,.88,1.02,.18,.47,.07,.92-.32,1.34-.78,.83-1.7,1.47-2.76,1.93-1.06,.45-2.22,.68-3.48,.68Z"/>
        <path d="M200,132.2c-1.15,0-1.73-.58-1.73-1.75v-15.09c0-1.17,.58-1.75,1.73-1.75s1.73,.58,1.73,1.75v15.09c0,1.17-.58,1.75-1.73,1.75Z"/>
        <path d="M214.06,132.2c-1.17,0-1.75-.58-1.75-1.75v-13.65h-3.72c-1.17,0-1.75-.53-1.75-1.59s.58-1.59,1.75-1.59h10.89c1.17,0,1.75,.53,1.75,1.59s-.59,1.59-1.75,1.59h-3.69v13.65c0,1.17-.58,1.75-1.73,1.75Z"/>
        <path d="M233.02,132.2c-1.17,0-1.75-.58-1.75-1.75v-6.11l-5.05-8.63c-.41-.69-.48-1.21-.21-1.57,.27-.35,.81-.53,1.62-.53,.9,0,1.59,.41,2.07,1.22l3.32,5.76,3.29-5.76c.48-.81,1.18-1.22,2.1-1.22,.83,0,1.36,.2,1.59,.61,.23,.41,.17,.9-.19,1.49l-5.07,8.63v6.11c0,1.17-.58,1.75-1.73,1.75Z"/>
      </g>
    </g>
  </g>
</svg>